<?xml version="1.0" encoding="UTF-8" standalone="no"?>
<!DOCTYPE svg PUBLIC "-//W3C//DTD SVG 1.1//EN" "http://www.w3.org/Graphics/SVG/1.1/DTD/svg11.dtd">
<svg width="100%" height="100%" viewBox="0 0 24 24" version="1.1" xmlns="http://www.w3.org/2000/svg" xmlns:xlink="http://www.w3.org/1999/xlink" xml:space="preserve" xmlns:serif="http://www.serif.com/" style="fill-rule:evenodd;clip-rule:evenodd;stroke-linejoin:round;stroke-miterlimit:2;">
    <path d="M12,6L12,9L16,5L12,1L12,4C7.58,4 4,7.58 4,12C4,13.57 4.46,15.03 5.24,16.26L6.7,14.8C6.25,13.97 6,13.01 6,12C6,8.69 8.69,6 12,6ZM18.76,7.74L17.3,9.2C17.74,10.04 18,10.99 18,12C18,15.31 15.31,18 12,18L12,15L8,19L12,23L12,20C16.42,20 20,16.42 20,12C20,10.43 19.54,8.97 18.76,7.74Z" style="fill:rgb(188,188,188);fill-rule:nonzero;"/>
    <rect x="0" y="0" width="24" height="24" style="fill:none;fill-rule:nonzero;"/>
</svg>
