<?xml version="1.0" encoding="UTF-8" standalone="no"?>
<!DOCTYPE svg PUBLIC "-//W3C//DTD SVG 1.1//EN" "http://www.w3.org/Graphics/SVG/1.1/DTD/svg11.dtd">
<svg width="100%" height="100%" viewBox="0 0 24 24" version="1.1" xmlns="http://www.w3.org/2000/svg" xmlns:xlink="http://www.w3.org/1999/xlink" xml:space="preserve" xmlns:serif="http://www.serif.com/" style="fill-rule:evenodd;clip-rule:evenodd;stroke-linejoin:round;stroke-miterlimit:2;">
    <rect x="0" y="0" width="24" height="24" style="fill:none;fill-rule:nonzero;"/>
    <path d="M19.35,10.04C18.67,6.59 15.64,4 12,4C9.11,4 6.6,5.64 5.35,8.04C2.34,8.36 0,10.91 0,14C0,17.31 2.69,20 6,20L19,20C21.76,20 24,17.76 24,15C24,12.36 21.95,10.22 19.35,10.04ZM14,13L14,17L10,17L10,13L7,13L12,8L17,13L14,13Z" style="fill:white;fill-rule:nonzero;"/>
</svg>
